<svg width="242" height="212" viewBox="0 0 242 212" fill="none" xmlns="http://www.w3.org/2000/svg">
<path d="M239.367 46.4496L204.961 3.34644C204.748 3.08721 204.536 2.85154 204.3 2.61588C205.904 4.2184 206.894 6.45721 206.894 8.90813C206.894 13.81 202.909 17.7927 198.004 17.7927H193.712L225.43 57.5494C228.496 61.3907 234.085 62.027 237.929 58.9634C241.773 55.8997 242.41 50.3145 239.344 46.4731L239.367 46.4496Z" fill="#55859E"/>
<path d="M34.4135 202.554C34.4135 197.629 38.3989 193.646 43.304 193.646H47.596L15.8542 153.889C12.7884 150.048 7.19942 149.412 3.3555 152.475C-0.488431 155.539 -1.12515 161.124 1.94055 164.965L36.3472 208.069C36.5595 208.328 36.7717 208.563 37.0075 208.799C35.4039 207.197 34.4135 204.958 34.4135 202.507V202.554Z" fill="#55859E"/>
<path d="M3.35524 152.499C7.19917 149.435 12.7882 150.071 15.8539 153.913L18.5187 157.259L29.8382 107.675C30.923 102.891 27.9281 98.1073 23.1409 97.0233C18.3536 95.9156 13.5664 98.9321 12.4816 103.716L0.218788 157.471C0.14804 157.801 0.100876 158.108 0.0537109 158.438C0.313117 156.175 1.42149 154.031 3.35524 152.499Z" fill="#00B6C2"/>
<path d="M237.953 58.9634C234.109 62.027 228.497 61.3907 225.454 57.5494L222.79 54.2029L211.47 103.787C210.385 108.571 213.38 113.355 218.167 114.439C218.828 114.604 219.488 114.675 220.148 114.675C224.205 114.675 227.883 111.87 228.827 107.746L241.113 53.9908C241.184 53.6845 241.231 53.3545 241.278 53.0246C241.019 55.287 239.91 57.4315 237.977 58.9634H237.953Z" fill="#00B6C2"/>
<path d="M220.125 114.675C219.465 114.675 218.804 114.604 218.144 114.439C213.357 113.355 210.362 108.571 211.447 103.787L212.39 99.6156L170.413 119.812L74.7631 73.7396C72.3342 72.5612 69.4807 72.5612 67.0281 73.7396L17.3165 97.6596C17.1986 97.7067 17.1042 97.801 16.9863 97.8717C18.8258 96.8819 20.9717 96.5048 23.1649 96.9997C27.9521 98.0838 30.9471 102.868 29.8623 107.652L28.919 111.823L70.9192 91.6265L166.569 137.699C167.796 138.288 169.116 138.571 170.437 138.571C171.757 138.571 173.078 138.288 174.304 137.699L224.016 113.779C224.016 113.779 224.11 113.708 224.181 113.685C222.955 114.298 221.587 114.675 220.172 114.675H220.125Z" fill="#7DD7DC"/>
<path d="M198.004 0H142.821C140.109 0 137.562 1.22546 135.864 3.34644L101.458 46.4496C99.7598 48.5705 99.1467 51.3278 99.7363 53.9673L123.248 157.236L94.1944 193.646H43.3036C38.3985 193.646 34.4131 197.629 34.4131 202.554C34.4131 207.479 38.3985 211.462 43.3036 211.462H98.4864C101.198 211.462 103.745 210.237 105.443 208.116L139.85 165.013C141.548 162.892 142.161 160.134 141.571 157.495L118.06 54.2265L147.113 17.8163H198.004C202.909 17.8163 206.895 13.8335 206.895 8.9317C206.895 4.02987 202.909 0.0235665 198.004 0.0235665V0Z" fill="#005677"/>
</svg>
